<?xml version="1.0" standalone="no"?>
<!DOCTYPE svg PUBLIC "-//W3C//DTD SVG 20010904//EN"
 "http://www.w3.org/TR/2001/REC-SVG-20010904/DTD/svg10.dtd">
<svg version="1.0" xmlns="http://www.w3.org/2000/svg"
 width="774.000000pt" height="717.000000pt" viewBox="0 0 774.000000 717.000000"
 preserveAspectRatio="xMidYMid meet">
<g transform="translate(0.000000,717.000000) scale(0.100000,-0.100000)"
fill="#000000" stroke="none">
<path d="M4026 6787 c-22 -16 -25 -65 -5 -78 24 -15 58 -10 71 11 13 20 24 20
1363 20 l1350 0 163 -254 162 -253 0 -1271 c0 -1133 -2 -1272 -15 -1272 -38 0
-38 -79 0 -94 13 -5 15 -47 15 -318 l1 -313 84 -104 85 -104 0 -226 0 -226
-105 -162 -105 -162 0 -169 0 -169 85 -56 85 -57 240 0 c153 0 240 4 240 10 0
6 -85 10 -235 10 l-235 0 -80 53 -80 52 0 159 0 159 100 154 100 154 0 248 0
249 -85 105 -85 105 0 301 c0 290 1 301 20 311 13 7 20 21 20 40 0 19 -7 34
-20 42 -20 13 -20 24 -20 1295 l0 1281 -162 251 -162 251 -1353 0 c-1340 0
-1353 0 -1373 20 -23 23 -39 25 -64 7z"/>
<path d="M5241 6636 c-21 -25 -9 -69 21 -80 23 -8 32 -6 51 12 l23 22 685 0
684 0 83 -174 82 -174 0 -1662 0 -1662 -36 -49 c-35 -48 -37 -49 -76 -43 -31
5 -45 2 -68 -15 l-29 -21 16 38 c8 20 35 76 59 124 l44 88 0 1510 c0 1497 0
1510 20 1530 26 26 25 52 0 75 -16 15 -26 17 -48 9 -36 -12 -44 -66 -13 -86
l21 -13 0 -1510 0 -1510 -60 -124 -60 -123 0 -348 0 -348 60 -105 60 -104 1
-129 0 -129 199 -180 c145 -131 198 -185 194 -197 -15 -50 61 -82 88 -38 12
19 24 20 255 20 155 0 243 4 243 10 0 6 -87 10 -240 10 -230 0 -241 1 -261 21
-14 14 -28 19 -44 15 -19 -5 -56 25 -221 177 l-199 182 4 120 3 120 -61 107
-61 108 0 286 0 285 26 -20 c15 -12 33 -21 40 -21 12 0 14 -47 14 -261 l0
-262 51 -89 c38 -66 48 -93 40 -101 -19 -19 -12 -56 14 -73 24 -16 25 -21 25
-115 l0 -98 173 -140 172 -141 263 0 c168 0 262 4 262 10 0 6 -92 10 -257 10
l-256 0 -169 136 -168 136 0 98 c0 74 4 100 15 110 29 24 12 80 -24 80 -10 0
-40 43 -73 101 l-58 101 0 247 0 247 30 11 c18 7 36 25 46 46 15 32 16 40 2
74 -14 38 -14 38 24 90 l38 52 0 1670 0 1670 -85 178 -85 178 -695 3 c-682 2
-695 2 -705 22 -13 24 -62 27 -79 6z"/>
<path d="M4094 6537 c-38 -33 -39 -96 -1 -134 38 -38 101 -37 134 1 13 15 23
34 23 42 0 12 154 14 1172 12 l1172 -3 22 -55 23 -55 1 -1691 0 -1692 -25 -66
-25 -66 0 -384 0 -383 25 -61 c23 -56 25 -75 25 -209 l0 -148 243 -243 242
-242 308 0 c198 0 307 4 307 10 0 6 -107 10 -301 10 l-302 0 -238 237 -239
237 0 146 c0 133 -2 152 -25 208 l-25 62 0 373 c0 372 0 374 25 447 l25 74 0
1690 0 1691 -27 67 -26 68 -1179 0 c-1056 0 -1178 2 -1178 15 0 9 -11 27 -25
40 -33 33 -93 34 -131 2z"/>
<path d="M5171 6314 c-51 -65 -11 -154 69 -154 43 0 90 33 90 65 0 13 66 15
605 15 l605 0 0 -1368 c0 -1356 0 -1367 -20 -1380 -14 -8 -20 -23 -20 -46 0
-29 -8 -41 -55 -81 l-55 -47 0 -167 0 -167 75 -74 75 -74 0 -597 0 -597 292
-271 291 -271 311 2 311 3 -301 2 -300 3 -292 271 -292 271 0 597 0 597 -75
74 -75 74 0 156 0 156 54 47 c34 29 64 47 80 47 51 0 74 55 36 87 -20 17 -20
30 -20 1395 l0 1378 -615 0 c-589 0 -615 1 -615 18 0 60 -119 87 -159 36z"/>
<path d="M6952 6198 c-19 -19 -15 -66 8 -78 20 -11 20 -21 20 -1610 l0 -1598
55 -65 c36 -42 53 -70 49 -80 -3 -10 4 -26 20 -42 25 -25 26 -30 26 -150 0
-116 -1 -125 -19 -125 -28 0 -71 -56 -71 -92 0 -16 7 -42 16 -58 17 -27 16
-28 -30 -88 l-46 -60 0 -259 0 -258 133 -87 133 -88 247 0 c158 0 247 4 247
10 0 6 -88 10 -243 10 l-242 0 -128 85 -127 85 0 245 0 246 48 64 c34 47 52
63 65 59 53 -16 117 40 117 101 0 29 -49 85 -74 85 -14 0 -16 18 -16 128 0
116 2 128 20 140 24 15 27 64 5 82 -8 7 -26 10 -40 8 -20 -4 -33 5 -75 54
l-50 60 0 1590 c0 1575 0 1590 20 1615 24 31 25 46 4 67 -18 19 -55 21 -72 4z"/>
<path d="M4453 6073 c-22 -8 -16 -71 8 -84 23 -12 69 2 69 21 0 7 297 10 910
10 l910 0 0 -1003 0 -1004 -25 -11 c-18 -9 -25 -19 -25 -41 0 -16 4 -33 10
-36 5 -3 -49 -84 -120 -179 l-130 -173 0 -235 c0 -197 -2 -238 -15 -248 -18
-15 -20 -61 -3 -78 7 -7 21 -12 31 -12 11 0 95 -44 188 -97 l168 -98 1 -583 0
-582 304 -301 c279 -275 305 -304 308 -337 3 -35 5 -37 41 -40 26 -2 39 1 43
12 5 14 44 16 310 16 196 0 304 4 304 10 0 6 -107 10 -300 10 -289 0 -300 1
-310 20 -7 14 -21 20 -42 20 -28 0 -67 34 -337 302 l-306 303 -5 585 -5 584
-155 91 c-151 89 -155 92 -152 122 2 23 -3 36 -23 51 l-25 20 0 228 0 227 130
173 c91 122 136 173 152 176 14 2 26 13 33 32 8 24 6 31 -13 46 l-22 18 0
1016 0 1016 -915 0 c-775 0 -915 2 -915 14 0 22 -44 33 -77 19z"/>
<path d="M5188 5895 c-38 -21 -53 -73 -34 -119 15 -37 46 -56 91 -56 30 0 85
46 85 71 0 18 13 19 405 19 l405 0 0 -837 0 -838 -190 -256 -190 -257 -44 5
c-38 5 -48 2 -70 -20 -51 -51 -41 -125 21 -155 l33 -16 0 -420 c0 -410 -1
-422 -20 -434 -20 -12 -26 -47 -12 -70 5 -7 22 -14 38 -16 16 -2 150 -63 297
-134 246 -120 267 -132 267 -156 0 -15 8 -31 20 -38 19 -12 20 -24 20 -240 0
-219 -1 -228 -21 -238 -16 -9 -19 -19 -17 -48 3 -36 5 -37 44 -40 39 -3 52
-15 390 -367 l349 -364 343 -1 c221 0 342 4 342 10 0 6 -119 10 -337 10 l-338
1 -350 365 c-280 292 -351 371 -353 395 -2 17 -10 33 -18 36 -21 8 -21 465 1
483 19 16 19 64 0 80 -8 7 -27 10 -41 7 -21 -4 -92 27 -291 124 -253 123 -263
129 -257 153 4 17 0 30 -15 45 -21 21 -21 29 -21 440 0 409 1 420 20 426 50
16 77 98 46 140 -12 16 5 43 175 273 l189 255 0 854 0 853 -410 0 c-397 0
-410 1 -410 19 0 27 -56 71 -88 71 -15 -1 -39 -7 -54 -15z"/>
<path d="M0 3913 c0 -6 331 -160 735 -344 l735 -334 0 -595 1 -595 367 -263
367 -262 -3 -45 c-5 -61 28 -95 91 -95 46 0 87 29 87 63 0 16 56 17 790 17
758 0 790 -1 790 -18 0 -32 47 -67 90 -67 43 0 90 35 90 67 0 17 11 18 144 18
l145 0 122 -135 123 -135 423 0 423 0 159 -85 159 -85 209 0 208 -1 327 -304
327 -305 416 0 c270 0 415 3 415 10 0 7 -143 10 -410 10 l-410 0 -322 300
-323 299 -205 1 -205 0 -170 90 -170 90 -420 0 -420 0 -123 135 -123 135 -149
0 c-129 0 -150 2 -150 15 0 32 -47 65 -90 65 -43 0 -90 -33 -90 -65 0 -13 -84
-15 -790 -15 -773 0 -790 0 -790 19 0 11 -12 29 -27 41 -28 21 -36 22 -133 8
-8 -1 -178 115 -377 257 l-362 260 -1 595 -1 595 -722 327 c-797 361 -757 344
-757 331z"/>
<path d="M2 3779 c2 -6 287 -134 633 -284 610 -265 630 -274 638 -304 5 -21
15 -33 32 -37 l25 -6 0 -592 0 -592 419 -332 420 -332 698 -1 698 0 133 -139
134 -139 -11 -34 c-22 -65 24 -127 94 -127 29 0 85 49 85 74 0 14 44 16 413
16 l412 0 105 85 104 85 230 0 229 0 153 -100 154 -100 213 0 214 0 338 -305
338 -305 421 2 421 3 -411 2 -410 3 -338 305 -337 305 -213 0 -212 0 -162 105
-162 105 -237 0 -238 0 -105 -85 -105 -85 -405 0 -405 0 -13 29 c-16 37 -60
55 -111 47 l-39 -6 -135 140 -134 140 -699 0 -699 1 -412 327 -413 327 0 592
c0 384 4 594 10 598 15 9 12 61 -5 75 -9 7 -28 10 -48 6 -28 -5 -126 35 -666
269 -349 151 -636 275 -638 275 -3 0 -3 -5 -1 -11z"/>
<path d="M7618 3729 c-25 -14 -23 -65 2 -81 18 -12 20 -24 20 -148 l0 -135
-95 -85 c-69 -61 -102 -84 -118 -82 -78 10 -99 7 -123 -21 -47 -54 -15 -156
49 -157 16 0 17 -24 17 -371 l0 -371 -90 -169 -90 -168 0 -149 0 -149 39 -31
40 -32 238 2 238 2 -230 6 -230 5 -37 30 -38 30 0 140 0 140 85 159 85 158 0
384 c0 318 2 384 14 384 46 0 91 84 67 127 -9 18 2 31 89 109 l100 89 0 147
c0 135 1 147 19 153 26 8 34 45 15 72 -16 25 -38 29 -66 12z"/>
<path d="M0 3492 c0 -4 244 -116 543 -248 l542 -240 3 -544 c2 -476 0 -545
-13 -553 -16 -8 -21 -72 -7 -81 5 -3 20 -7 35 -10 38 -7 797 -638 820 -682 14
-27 23 -34 47 -34 19 0 34 7 42 20 13 20 24 20 654 20 l642 0 96 -170 97 -170
402 0 c390 0 403 -1 420 -20 22 -26 63 -26 79 0 12 19 24 20 244 20 l232 0 90
75 90 75 141 0 c138 0 142 -1 150 -22 22 -58 107 -83 149 -45 16 14 22 12 82
-33 l65 -49 290 -1 290 0 310 -278 c273 -244 310 -280 307 -303 -3 -28 20 -59
44 -59 8 0 26 11 40 25 l25 25 394 0 c257 0 395 4 395 10 0 6 -140 10 -399 10
-342 0 -400 2 -411 15 -7 8 -25 15 -41 15 -23 0 -87 52 -341 280 l-313 280
-288 0 -289 0 -64 47 c-62 45 -64 48 -64 90 0 33 -6 50 -25 68 -44 45 -133 27
-155 -31 -9 -24 -11 -24 -156 -24 l-146 0 -90 -75 -90 -75 -224 0 c-211 0
-225 1 -244 20 -25 25 -52 25 -75 0 -18 -19 -31 -20 -415 -20 l-396 0 -94 165
-94 165 -653 0 c-578 0 -653 2 -653 15 0 22 -46 38 -71 24 -15 -8 -25 -7 -37
3 -9 7 -185 152 -389 321 l-373 309 0 40 c0 31 -4 41 -20 45 -20 5 -20 14 -20
557 l0 552 -548 242 c-301 133 -550 242 -554 242 -5 0 -8 -4 -8 -8z"/>
<path d="M1 3321 c3 -7 209 -103 459 -215 l455 -203 3 -554 4 -554 429 -387
429 -388 214 0 214 0 -29 -29 c-40 -41 -40 -91 0 -132 46 -45 117 -35 146 21
l16 30 332 0 332 0 90 -163 90 -162 439 -3 c426 -2 440 -3 453 -22 18 -26 59
-26 75 0 12 19 24 20 304 20 l292 0 117 -55 117 -55 361 0 361 0 97 55 97 55
120 0 120 0 327 -290 c180 -159 335 -290 344 -290 19 0 53 -31 -338 314 l-323
286 -130 0 -129 0 -104 -60 -104 -60 -341 0 -340 0 -120 60 -120 60 -297 0
c-287 0 -299 1 -311 20 -16 26 -57 26 -75 0 -14 -20 -23 -20 -446 -18 l-433 3
-87 155 -87 155 -339 3 -340 2 -17 40 c-9 23 -27 44 -40 49 -15 6 143 10 438
10 l460 1 91 -162 90 -163 508 -3 c495 -2 509 -3 522 -22 18 -26 59 -26 75 0
12 19 24 20 211 20 l198 0 43 -33 c38 -28 43 -37 43 -70 0 -55 33 -87 91 -87
36 0 49 5 72 30 l28 30 257 0 258 0 112 65 c111 65 112 65 189 65 70 0 77 -2
85 -22 18 -47 46 -61 106 -55 l56 6 306 -275 307 -274 455 2 456 3 -448 5
-447 5 -309 275 -308 275 5 52 c4 45 2 54 -21 77 -50 50 -137 30 -160 -36 -5
-15 -19 -18 -87 -18 l-81 0 -112 -65 -112 -65 -258 0 -257 0 0 25 c0 42 -41
75 -93 75 -27 0 -49 -6 -57 -15 -17 -21 -24 -19 -72 15 l-41 30 -201 0 c-190
0 -202 1 -214 20 -16 26 -58 26 -74 0 -13 -20 -24 -20 -514 -20 l-502 0 -88
160 -89 160 -702 0 -702 0 -430 390 -431 391 0 552 0 552 -460 205 c-522 232
-484 216 -479 201z"/>
<path d="M7579 3221 c-33 -34 -39 -83 -13 -119 15 -21 15 -25 0 -41 -13 -14
-16 -41 -16 -135 l0 -118 -55 -61 -55 -62 0 -210 c0 -208 0 -210 -22 -220 -28
-12 -37 -65 -15 -84 13 -10 8 -28 -34 -125 -49 -114 -49 -114 -49 -224 0 -63
-4 -113 -10 -117 -5 -3 -10 -19 -10 -35 0 -33 31 -57 58 -43 9 4 100 10 202
13 l185 6 -177 2 c-149 2 -176 4 -172 16 9 24 -15 56 -41 56 -25 0 -25 1 -25
94 0 91 1 96 53 215 30 68 63 129 75 137 26 18 30 65 7 84 -12 10 -15 47 -15
213 l0 200 60 68 60 67 0 120 c0 136 6 148 71 143 53 -4 99 40 99 94 0 51 -44
95 -95 95 -27 0 -44 -8 -66 -29z"/>
<path d="M0 3137 c0 -7 158 -84 350 -172 l350 -160 0 -525 1 -525 790 -697
791 -698 814 0 c728 0 814 -2 814 -15 0 -31 47 -65 88 -65 45 0 92 31 92 61 0
18 8 19 127 19 l126 0 70 -75 69 -75 162 0 162 0 74 75 74 75 594 0 594 0 162
-147 c88 -80 177 -162 198 -181 20 -19 42 -32 48 -30 7 2 -80 88 -193 191
l-206 187 -603 0 -604 0 -74 -75 -74 -75 -153 0 -152 0 -68 75 -68 75 -128 0
c-113 0 -128 2 -134 17 -23 66 -110 87 -158 38 -14 -13 -25 -31 -25 -40 0 -13
-86 -15 -809 -15 l-809 0 -783 692 -784 691 -5 529 -5 529 -295 135 c-162 75
-323 149 -357 164 -39 18 -63 24 -63 17z"/>
<path d="M0 3020 c0 -6 110 -64 245 -130 202 -98 245 -122 245 -139 0 -12 9
-26 20 -33 20 -13 20 -24 20 -475 0 -442 -1 -463 -18 -463 -33 0 -65 -45 -65
-91 0 -34 6 -47 27 -66 29 -25 83 -31 116 -13 16 8 137 -92 814 -675 l796
-685 318 0 318 0 38 -125 c22 -69 43 -125 47 -125 13 0 12 4 -31 142 l-41 128
-319 0 -320 0 -793 683 -794 682 5 42 c5 50 -16 90 -53 99 l-25 6 0 459 c0
446 1 460 20 479 39 39 12 98 -39 85 -14 -3 -30 -6 -36 -7 -5 0 -104 45 -220
102 -260 127 -275 133 -275 120z"/>
<path d="M7647 2658 l-87 -72 0 -183 0 -182 -70 -161 -70 -161 0 -104 0 -105
160 0 c100 0 160 4 160 10 0 6 -57 10 -150 10 l-150 0 0 93 0 93 70 158 70
159 0 181 0 181 80 65 c44 36 80 71 80 78 0 6 -1 12 -3 12 -1 0 -41 -32 -90
-72z"/>
<path d="M7688 2551 l-48 -26 0 -161 0 -162 -50 -138 c-47 -130 -50 -144 -50
-236 l0 -98 100 0 c60 0 100 4 100 10 0 6 -38 10 -95 10 l-95 0 0 71 c0 60 8
93 50 211 l50 140 0 167 0 168 45 24 c25 13 45 30 45 36 0 7 -1 12 -2 12 -2
-1 -24 -13 -50 -28z"/>
<path d="M4642 2093 c-18 -7 -42 -57 -42 -87 0 -13 12 -38 26 -55 21 -26 33
-31 68 -31 45 0 79 22 91 60 6 19 14 20 281 20 265 0 275 -1 295 -21 14 -14
29 -19 45 -16 20 4 58 -32 261 -249 l237 -254 247 0 247 0 313 -320 312 -320
359 0 c232 0 358 4 358 10 0 6 -124 10 -353 10 l-353 0 -313 320 -313 320
-247 0 -247 0 -234 251 c-160 171 -234 257 -232 270 9 52 -63 83 -90 39 -12
-19 -24 -20 -289 -20 l-277 0 -12 30 c-7 17 -21 35 -31 40 -18 10 -85 12 -107
3z"/>
<path d="M4549 1829 c-19 -36 3 -69 47 -69 28 0 37 5 41 20 5 20 12 20 230 18
l225 -3 73 -138 c62 -117 73 -143 68 -172 -3 -21 -1 -41 7 -50 18 -22 67 -19
80 5 10 18 21 20 144 20 l134 0 138 -50 138 -50 216 0 c208 0 216 -1 228 -21
11 -17 21 -20 50 -17 37 5 40 2 333 -289 l295 -293 372 0 c241 0 372 4 372 10
0 6 -129 10 -367 10 l-368 0 -297 297 c-164 164 -298 305 -298 314 0 20 -31
49 -53 49 -10 0 -25 -9 -34 -20 -16 -19 -30 -20 -230 -20 l-213 0 -139 50
-139 50 -135 0 c-121 0 -136 2 -152 20 -10 11 -26 20 -36 20 -13 0 -39 41 -94
145 l-76 145 -234 0 c-224 0 -233 1 -238 20 -8 29 -72 28 -88 -1z"/>
<path d="M4270 1680 c-23 -23 -24 -33 -10 -61 14 -26 66 -26 82 1 12 19 24 20
333 20 l321 0 103 -125 104 -125 177 0 177 0 170 -75 171 -75 222 0 222 0 306
-300 306 -300 393 0 c255 0 393 4 393 10 0 6 -136 10 -387 10 l-388 0 -307
300 -306 300 -225 0 -224 0 -159 70 -158 70 -182 0 -183 0 -102 125 -103 125
-333 0 c-286 0 -333 2 -333 15 0 14 -29 35 -49 35 -6 0 -20 -9 -31 -20z"/>
<path d="M4587 1534 c-11 -12 -8 -72 4 -80 7 -4 26 -7 42 -6 22 1 44 -11 78
-39 l47 -39 119 0 119 0 54 -55 54 -55 243 0 243 0 137 -60 136 -60 221 0 221
0 317 -310 316 -310 401 0 c261 0 401 3 401 10 0 6 -139 10 -396 10 l-396 0
-311 305 -311 305 -216 0 -216 0 -151 65 -151 65 -239 0 -239 0 -54 55 -54 55
-119 0 -119 0 -49 40 c-36 31 -49 49 -51 73 -3 29 -7 32 -38 35 -20 2 -39 0
-43 -4z"/>
<path d="M4320 504 c-10 -11 -11 -23 -4 -42 12 -36 67 -44 86 -13 12 20 22 21
210 21 194 0 198 0 278 -30 l81 -30 378 0 378 0 73 30 c68 28 81 30 206 30
l134 0 260 -236 c143 -129 266 -234 274 -232 7 2 -105 110 -250 240 l-263 238
-159 0 c-146 0 -163 -2 -220 -25 l-62 -25 -368 0 c-367 0 -369 0 -442 25 -69
24 -86 25 -286 25 -204 0 -213 1 -219 20 -8 25 -66 28 -85 4z"/>
<path d="M4936 294 c-19 -18 -21 -55 -5 -71 12 -12 0 -36 -93 -190 -15 -24
-16 -33 -6 -33 7 0 40 47 73 105 40 70 66 105 77 105 10 0 23 9 30 20 13 20
24 20 570 20 l558 0 113 -102 c61 -56 124 -113 139 -126 14 -13 32 -22 38 -20
6 2 -54 63 -135 136 l-146 132 -562 0 c-550 0 -563 0 -580 20 -20 24 -50 26
-71 4z"/>
<path d="M5532 178 c-15 -15 -16 -50 -2 -64 7 -7 4 -25 -10 -58 -23 -54 -23
-56 -12 -56 4 0 18 20 30 45 14 30 30 47 46 51 14 3 28 15 31 25 6 18 20 19
263 19 l257 0 78 -70 c43 -38 85 -70 94 -70 10 0 13 3 7 9 -5 5 -42 38 -83 75
l-75 66 -265 0 c-255 0 -267 1 -279 20 -14 22 -61 27 -80 8z"/>
</g>
</svg>
