<?xml version="1.0" standalone="no"?>
<!DOCTYPE svg PUBLIC "-//W3C//DTD SVG 20010904//EN"
 "http://www.w3.org/TR/2001/REC-SVG-20010904/DTD/svg10.dtd">
<svg version="1.0" xmlns="http://www.w3.org/2000/svg"
 width="512.000000pt" height="512.000000pt" viewBox="0 0 512.000000 512.000000"
 preserveAspectRatio="xMidYMid meet">
<g transform="translate(0.000000,512.000000) scale(0.100000,-0.100000)"
fill="#000000" stroke="none">
<path d="M2379 4808 c-78 -38 -178 -136 -215 -210 -15 -29 -40 -72 -55 -95
-16 -23 -29 -45 -29 -49 0 -7 -38 -75 -113 -199 -16 -27 -43 -75 -59 -105 -17
-30 -39 -67 -49 -82 -11 -14 -19 -29 -19 -32 0 -7 -93 -170 -134 -234 -14 -23
-26 -44 -26 -47 0 -3 -18 -34 -40 -69 -22 -35 -40 -66 -40 -70 0 -4 -16 -32
-35 -62 -19 -30 -35 -57 -35 -60 0 -4 -20 -38 -43 -78 -24 -39 -63 -105 -87
-146 -23 -41 -56 -97 -73 -125 -16 -27 -42 -72 -57 -100 -57 -105 -109 -195
-129 -224 -12 -16 -21 -32 -21 -36 0 -4 -17 -35 -37 -69 -21 -33 -45 -74 -54
-91 -45 -84 -98 -174 -122 -210 -15 -22 -27 -43 -27 -48 0 -4 -12 -26 -27 -50
-15 -23 -44 -73 -66 -112 -74 -131 -84 -150 -137 -240 -29 -49 -70 -120 -91
-157 -20 -37 -46 -80 -58 -97 -12 -16 -21 -32 -21 -35 0 -8 -83 -155 -125
-221 -17 -27 -34 -58 -38 -67 -3 -10 -22 -43 -42 -73 -19 -31 -35 -59 -35 -63
0 -4 -16 -31 -35 -59 -19 -29 -35 -56 -35 -61 0 -4 -14 -30 -31 -58 -35 -55
-81 -136 -116 -204 -19 -39 -22 -60 -22 -160 -1 -129 8 -158 79 -259 45 -64
100 -108 182 -146 l53 -25 2246 0 2246 0 72 36 c89 45 157 112 204 205 36 70
37 73 37 188 -1 100 -4 122 -23 161 -35 68 -81 149 -116 204 -17 28 -31 54
-31 58 0 5 -16 32 -35 61 -19 28 -35 56 -35 60 0 5 -8 21 -19 35 -10 15 -32
52 -49 82 -16 30 -54 96 -83 145 -29 50 -66 115 -82 145 -16 30 -33 60 -38 66
-5 6 -26 42 -47 80 -21 38 -63 110 -92 159 -53 90 -63 109 -137 240 -22 39
-51 89 -66 112 -15 24 -27 46 -27 50 0 5 -12 26 -27 48 -24 36 -77 126 -122
210 -9 17 -33 58 -54 91 -20 34 -37 65 -37 69 0 3 -13 25 -28 48 -16 23 -46
74 -67 112 -21 39 -48 88 -60 110 -12 22 -36 63 -52 90 -17 28 -50 84 -73 125
-24 41 -63 107 -87 146 -23 40 -43 74 -43 78 0 3 -16 30 -35 60 -19 30 -35 58
-35 62 0 4 -18 35 -40 70 -22 35 -40 67 -40 71 0 5 -12 26 -27 48 -24 36 -77
126 -122 210 -9 17 -33 58 -54 91 -20 34 -37 65 -37 69 0 4 -9 20 -21 36 -21
30 -77 127 -131 228 -16 30 -37 66 -47 80 -10 14 -30 50 -45 79 -37 74 -137
172 -215 210 -61 30 -70 32 -181 32 -111 0 -120 -2 -181 -32z m751 -1351 c14
-7 24 -21 24 -30 -1 -9 2 -15 6 -12 4 2 12 -7 19 -21 15 -33 14 -141 -1 -150
-7 -5 -8 -3 -3 6 5 8 4 11 -3 6 -6 -4 -8 -14 -5 -23 4 -11 3 -14 -5 -9 -8 4
-10 2 -6 -8 7 -17 -31 -41 -48 -30 -7 5 -8 3 -3 -6 6 -9 -3 -11 -36 -9 l-44 4
5 -385 c5 -383 5 -385 28 -422 13 -21 29 -38 34 -38 6 0 7 -7 4 -16 -4 -10 -2
-13 6 -8 8 5 9 2 5 -10 -4 -9 -3 -15 1 -12 12 7 44 -52 36 -66 -5 -7 -3 -8 6
-3 10 6 12 4 7 -8 -3 -9 1 -21 11 -29 15 -11 16 -11 7 2 -5 9 0 5 12 -9 12
-14 20 -27 18 -30 -3 -2 7 -19 21 -38 14 -18 23 -37 19 -42 -3 -5 0 -13 6 -17
8 -5 10 -2 5 7 -4 8 0 5 8 -5 9 -11 16 -25 16 -32 0 -6 7 -17 15 -24 9 -7 13
-20 10 -29 -3 -8 -3 -12 1 -9 7 8 56 -47 52 -59 -2 -5 7 -19 20 -33 12 -13 20
-30 17 -38 -3 -8 0 -10 7 -6 7 5 9 2 5 -9 -3 -9 1 -21 11 -29 16 -12 16 -11 2
7 -14 19 -14 19 3 6 9 -7 17 -19 17 -26 0 -6 14 -31 30 -54 17 -23 28 -46 25
-51 -3 -5 0 -12 6 -16 8 -5 10 -2 5 7 -4 8 0 5 8 -5 9 -11 16 -25 16 -32 0 -6
7 -17 15 -24 9 -7 14 -19 11 -27 -4 -9 -1 -11 6 -7 8 5 9 2 5 -9 -3 -9 -1 -19
5 -23 7 -5 8 -2 3 6 -5 8 -4 11 3 6 17 -10 63 -118 57 -133 -2 -8 0 -11 5 -8
6 4 10 -21 10 -67 0 -84 -8 -121 -23 -111 -6 3 -7 1 -3 -5 4 -6 1 -22 -6 -34
-7 -13 -13 -27 -13 -33 -1 -5 -6 -9 -13 -8 -6 2 -9 -3 -7 -10 7 -17 -81 -101
-96 -91 -7 4 -10 3 -5 -4 3 -6 -13 -18 -41 -29 -45 -17 -97 -18 -883 -18 -786
0 -838 1 -883 18 -28 11 -44 23 -41 29 5 7 2 8 -5 4 -15 -10 -103 74 -96 91 2
7 -1 12 -7 10 -7 -1 -12 3 -13 8 0 6 -6 20 -13 33 -7 12 -10 28 -6 34 4 6 3 8
-3 5 -15 -10 -23 27 -23 111 0 46 4 71 10 67 5 -3 7 0 5 8 -6 15 40 123 57
133 7 5 8 2 3 -6 -5 -8 -4 -11 3 -6 6 4 8 14 5 23 -4 11 -3 14 5 9 7 -4 10 -2
6 7 -3 8 2 20 11 27 8 7 15 18 15 24 0 7 7 21 16 32 8 10 12 13 8 5 -5 -9 -3
-12 5 -7 6 4 9 11 6 16 -3 5 8 28 25 51 16 23 30 48 30 54 0 7 8 19 18 26 16
13 16 13 2 -6 -14 -18 -14 -19 2 -7 10 8 14 20 11 29 -4 11 -2 14 5 9 7 -4 10
-2 7 6 -3 8 5 25 17 38 13 14 22 28 20 33 -4 12 45 67 52 59 4 -3 4 1 1 9 -3
9 1 22 10 29 8 7 15 18 15 24 0 7 7 21 16 32 8 10 12 13 8 5 -5 -9 -3 -12 5
-7 6 4 9 12 6 17 -4 5 5 24 19 42 14 19 24 36 21 38 -2 3 6 16 18 30 12 14 18
18 12 9 -9 -13 -8 -13 7 -2 10 8 14 20 11 29 -5 12 -3 14 7 8 9 -5 11 -4 6 3
-8 14 24 73 36 66 4 -3 5 3 1 12 -4 12 -3 15 5 10 8 -5 10 -2 6 8 -3 9 -2 16
4 16 5 0 21 17 34 38 23 37 23 39 28 422 l5 385 -44 -4 c-33 -2 -42 0 -36 9 5
9 4 11 -3 6 -17 -11 -55 13 -48 30 4 10 2 12 -6 8 -8 -5 -9 -2 -5 9 3 9 1 19
-5 23 -7 5 -8 2 -3 -6 5 -9 4 -11 -3 -6 -15 9 -16 117 -1 150 7 14 15 23 19
21 4 -3 7 3 6 12 -3 41 24 43 594 43 426 0 550 -3 570 -13z"/>
<path d="M2400 2750 c1 -399 0 -422 -18 -445 -11 -13 -22 -21 -26 -17 -4 3 -4
-2 0 -12 6 -15 4 -17 -7 -11 -8 4 -11 5 -7 1 6 -8 -29 -86 -39 -86 -2 0 -1 5
3 12 4 7 3 8 -4 4 -6 -4 -8 -14 -5 -23 4 -11 3 -14 -5 -9 -8 5 -10 2 -6 -8 3
-9 2 -16 -3 -16 -6 0 -22 -23 -37 -50 -15 -28 -32 -48 -37 -45 -5 3 -6 -2 -2
-11 4 -12 3 -15 -5 -10 -7 4 -10 2 -7 -6 3 -8 -4 -24 -15 -36 -11 -12 -20 -24
-20 -27 1 -21 -1 -25 -10 -20 -6 3 -7 -1 -4 -9 5 -14 55 -16 414 -16 359 0
409 2 414 16 3 8 2 12 -4 9 -9 -5 -15 10 -7 18 1 1 -8 13 -21 27 -12 13 -20
30 -18 37 3 7 0 15 -6 19 -7 4 -8 3 -4 -4 4 -7 5 -12 2 -12 -3 0 -19 27 -37
60 -17 33 -36 60 -41 60 -6 0 -8 7 -5 15 4 8 1 17 -5 21 -7 5 -8 2 -4 -7 4 -8
0 -5 -8 5 -9 11 -16 25 -16 32 0 6 -7 17 -15 24 -9 7 -14 19 -11 27 4 9 1 11
-6 7 -8 -5 -9 -1 -4 12 4 10 4 15 0 12 -4 -4 -15 4 -26 17 -18 23 -19 46 -18
445 l0 420 -160 0 -160 0 0 -420z"/>
</g>
</svg>
